<?xml version="1.0" encoding="iso-8859-1"?>
<!-- Generator: Adobe Illustrator 19.0.0, SVG Export Plug-In . SVG Version: 6.00 Build 0)  -->
<svg version="1.1" id="Layer_1" xmlns="http://www.w3.org/2000/svg" xmlns:xlink="http://www.w3.org/1999/xlink" x="0px" y="0px"
	 viewBox="0 0 511.998 511.998" style="enable-background:new 0 0 511.998 511.998;" xml:space="preserve">
<g>
	<g>
		<g>
			<path d="M298.204,378.614c-3.89,0-7.525,1.167-10.775,3.276c0.921-4.097,1.423-8.539,1.423-13.231
				c0-22.245-11.168-39.022-25.979-39.022c-14.811,0-25.978,16.776-25.978,39.022c0,4.69,0.501,9.133,1.424,13.232
				c-3.252-2.11-6.887-3.278-10.776-3.278c-14.811,0-25.978,16.776-25.978,39.022c0,22.246,11.167,39.022,25.978,39.022
				s25.979-16.776,25.979-39.022c0-4.689-0.501-9.133-1.424-13.231c3.252,2.109,6.886,3.276,10.775,3.276s7.524-1.167,10.775-3.276
				c-0.923,4.097-1.424,8.54-1.424,13.231c0,22.246,11.168,39.022,25.98,39.022c14.811,0,25.978-16.776,25.978-39.022
				C324.181,395.389,313.014,378.614,298.204,378.614z M227.542,438.837c-2.492,0-8.158-8.009-8.158-21.202
				c0-13.192,5.667-21.202,8.158-21.202c2.492,0,8.159,8.009,8.159,21.202C235.702,430.827,230.034,438.837,227.542,438.837z
				 M262.873,389.862c-2.492,0-8.158-8.009-8.158-21.202s5.667-21.202,8.158-21.202c2.492,0,8.159,8.009,8.159,21.202
				S265.364,389.862,262.873,389.862z M298.204,438.837c-2.494,0-8.16-8.009-8.16-21.202c0-13.192,5.668-21.202,8.16-21.202
				c2.492,0,8.158,8.009,8.158,21.202C306.362,430.827,300.696,438.837,298.204,438.837z"/>
			<circle cx="179.045" cy="176.576" r="12.679"/>
			<circle cx="335.484" cy="114.931" r="12.679"/>
			<path d="M412.629,234.43c-2.249-0.94-4.544-1.756-6.857-2.507c1.352-2.693,2.642-5.427,3.85-8.213
				c17.023-39.198,17.762-82.681,2.08-122.436c-3.739-9.481-8.363-18.552-13.778-27.096l10.688-4.208
				c16.842-6.633,25.15-25.731,18.52-42.573c-0.865-2.199-2.568-3.964-4.735-4.906c-0.878-0.383-1.806-0.611-2.742-0.696
				c0.459-4.998-0.221-10.147-2.155-15.059c-0.866-2.199-2.568-3.964-4.735-4.906c-2.167-0.943-4.622-0.985-6.818-0.121
				l-57.931,22.806C304.968-2.496,251.559-7.542,204.17,11.148c-47.363,18.682-82.93,58.785-95.964,107.869L50.291,141.86
				c-2.199,0.866-3.962,2.572-4.903,4.739c-0.942,2.167-0.984,4.62-0.116,6.818c1.938,4.911,4.957,9.135,8.702,12.475
				c-0.627,0.704-1.152,1.504-1.535,2.384c-0.942,2.167-0.984,4.62-0.116,6.818c5.088,12.898,17.487,20.785,30.581,20.785
				c3.999,0,8.064-0.737,12.003-2.29l10.685-4.214c1.876,9.974,4.695,19.793,8.448,29.309c1.787,4.529,3.771,8.94,5.926,13.241
				c-2.312,0.752-4.605,1.566-6.852,2.504c-45.296,18.918-66.758,71.158-47.843,116.455l36.019,86.255
				c4.104,9.827,11.791,17.468,21.642,21.516c4.89,2.008,10.022,3.012,15.153,3.012c4.928,0,9.853-0.939,14.564-2.792
				c11.589,10.391,24.419,18.994,38.139,25.654v18.559c0,4.922,3.988,8.91,8.91,8.91c4.286,0,7.863-3.027,8.715-7.059
				c0.852,4.033,4.429,7.059,8.715,7.059c4.285,0,7.861-3.026,8.715-7.057c0.852,4.032,4.429,7.057,8.714,7.057
				c4.922,0,8.91-3.988,8.91-8.91v-3.2c6.399,0.746,12.875,1.131,19.406,1.131s13.007-0.384,19.406-1.131v3.2
				c0,4.922,3.988,8.91,8.91,8.91c4.285,0,7.862-3.026,8.714-7.057c0.854,4.032,4.429,7.057,8.715,7.057
				c4.286,0,7.863-3.027,8.715-7.059c0.852,4.033,4.429,7.059,8.715,7.059c4.922,0,8.91-3.988,8.91-8.91v-18.559
				c13.72-6.659,26.552-15.261,38.141-25.654c4.712,1.853,9.635,2.792,14.564,2.792c5.13,0,10.263-1.004,15.152-3.012
				c9.851-4.047,17.537-11.689,21.643-21.517l36.018-86.254C479.388,305.589,457.924,253.348,412.629,234.43z M393.276,216.613
				c-15.127,34.831-42.913,61.688-78.239,75.622c-35.327,13.932-73.963,13.279-108.795-1.85
				c-34.832-15.126-61.69-42.913-75.623-78.239c-3.762-9.538-6.465-19.419-8.101-29.447l7.375-2.908
				c0.334,5.028,1.439,10.03,3.342,14.854c7.474,18.946,25.461,31.19,45.823,31.19c0,0,0,0,0.001,0
				c6.185,0,12.261-1.159,18.057-3.445c12.237-4.827,21.861-14.13,27.102-26.195c1.529-3.522,2.62-7.159,3.292-10.845
				c1.351,3.278,3.557,6.238,6.486,8.554l38.657,30.522c3.587,2.831,7.553,4.328,11.476,4.328c0.001,0,0.001,0,0.001,0
				c7.955,0,14.219-6.028,15.586-15.002l7.408-48.69c0.556-3.644,0.163-7.269-1.054-10.557c8.292,6.17,18.514,9.685,29.421,9.685
				c6.176,0,12.243-1.156,18.031-3.436c12.24-4.818,21.87-14.115,27.117-26.176c5.247-12.063,5.484-25.447,0.665-37.688
				c-1.91-4.854-4.516-9.265-7.669-13.146l7.357-2.898c5.626,8.423,10.377,17.46,14.129,26.97
				C409.06,143.141,408.404,181.779,393.276,216.613z M150.22,164.056c3.343-7.699,9.485-13.637,17.295-16.716
				c3.705-1.461,7.582-2.203,11.52-2.203c12.998,0,24.477,7.813,29.247,19.907c3.08,7.809,2.935,16.35-0.409,24.05
				c-3.343,7.701-9.486,13.637-17.296,16.717c-3.705,1.461-7.582,2.203-11.52,2.203c-12.995,0-24.477-7.815-29.247-19.908
				C146.731,180.296,146.876,171.756,150.22,164.056z M211.466,129.663c9.081,6.257,16.432,15.139,20.7,25.959l2.212,5.612
				l-1.587,1.464c-2.157,1.993-3.831,4.354-4.985,6.911c-0.545-3.759-1.519-7.482-2.949-11.103
				c-0.045-0.115-0.096-0.227-0.143-0.342c-0.019-0.051-0.032-0.104-0.052-0.156l-5.815-14.734
				C216.921,138.39,214.438,133.83,211.466,129.663z M286.842,159.25c0.677,0,1.61,0.141,2.189,0.817
				c0.583,0.68,0.583,1.631,0.479,2.311l-7.153,47.003l-37.315-29.462c-0.539-0.426-1.192-1.124-1.225-2.023
				c-0.034-0.898,0.56-1.642,1.061-2.104l10.305-9.508c3.835-3.543,12.393-6.919,17.614-6.95L286.842,159.25z M279.773,102.547
				c0.646,5.096,1.925,10.192,3.891,15.185l5.8,14.739c0.018,0.043,0.04,0.078,0.059,0.121c0.047,0.125,0.088,0.252,0.137,0.377
				c1.427,3.625,3.241,7.002,5.379,10.098c-2.543-1.056-5.319-1.638-8.197-1.638h-0.133l-2.16,0.013l-2.212-5.609
				C278.04,124.943,277.363,113.366,279.773,102.547z M323.971,85.685c3.699-1.456,7.569-2.195,11.501-2.195
				c5.896,0,11.469,1.62,16.256,4.505c0.299,0.215,0.611,0.412,0.933,0.587c5.335,3.48,9.603,8.579,12.065,14.833
				c3.075,7.812,2.925,16.354-0.424,24.051c-3.348,7.697-9.493,13.631-17.304,16.706c-3.701,1.458-7.571,2.197-11.503,2.197
				c-13.005,0-24.488-7.822-29.253-19.925C299.894,110.318,307.849,92.034,323.971,85.685z M405.587,45.456l5.494-2.163
				c-1.192,4.443-4.399,8.287-8.997,10.098l-20.735,8.163c-0.061,0.023-0.12,0.049-0.179,0.071l-23.532,9.265
				c-2.663-1.336-5.459-2.432-8.355-3.268l56.158-22.107C405.49,45.494,405.539,45.477,405.587,45.456z M350.263,42.783
				c0.069-0.026,0.135-0.052,0.203-0.08l51.005-20.079c-0.682,2.573-2.054,4.962-4.037,6.892l-68.503,26.967
				c-12.083,4.757-22.413,13.164-29.536,23.927c4.084-12.353,13.409-22.878,26.433-28.006L350.263,42.783z M210.709,27.726
				c37.849-14.928,80.022-12.81,115.949,5.201l-7.358,2.896c-8.531,3.36-15.91,8.393-21.94,14.558
				c-31.452,18.537-45.044,57.778-31.63,91.906c-5.831,1.165-11.965,3.587-17.02,6.713c-13.431-33.933-49.965-53.346-85.459-45.652
				c-8.875-0.448-17.82,0.986-26.333,4.344l-7.352,2.9C143.533,72.945,172.885,42.644,210.709,27.726z M117.513,134.5
				c0.987-0.207,1.92-0.579,2.773-1.094l23.167-9.137c11.268-4.442,23.591-4.234,34.7,0.59c1.312,0.569,2.584,1.2,3.822,1.879
				c-12.577-3.038-25.902-2.149-38.009,2.63l-68.488,27.014c-2.761-0.058-5.397-0.871-7.649-2.286L117.513,134.5z M88.371,177.012
				c-4.598,1.815-9.566,1.194-13.469-1.246l5.467-2.156c0.078-0.029,0.158-0.062,0.235-0.093l56.137-22.143
				c-1.061,1.788-2.027,3.646-2.868,5.584c-0.36,0.827-0.69,1.662-1.003,2.502L88.371,177.012z M157.223,432.711
				c-0.295,0.52-0.627,1.05-0.988,1.574c-0.001,0.004-0.004,0.006-0.005,0.008c-0.001,0.002-0.002,0.004-0.004,0.005
				c-2.399,3.488-5.732,6.193-9.647,7.826c-5.431,2.27-11.427,2.287-16.875,0.05c-5.448-2.239-9.7-6.465-11.97-11.9L81.717,344.02
				c-15.128-36.231,2.037-78.017,38.268-93.146c2.965-1.239,6.014-2.252,9.101-3.08c16.924,25.899,41.026,46.328,70.058,58.936
				c6.377,2.769,12.867,5.108,19.436,7.014c0.238,6.052-0.303,12.113-1.62,18.088c-0.062,0.279-0.109,0.561-0.143,0.842
				c-0.421,2.143-1.164,4.664-2.216,7.505c-0.015,0.04-0.03,0.081-0.044,0.121c-0.859,2.43-1.915,4.94-3.142,7.462
				c-0.024,0.048-0.046,0.095-0.069,0.144c-9.929,21.387-29.672,49.55-42.736,68.186c-4.605,6.567-8.581,12.24-11.124,16.185
				C157.394,432.42,157.306,432.564,157.223,432.711z M334.377,464.751c-1.271-3.368-4.516-5.768-8.33-5.768
				c-4.286,0-7.863,3.027-8.715,7.059c-0.852-4.033-4.428-7.059-8.715-7.059c-4.285,0-7.861,3.026-8.715,7.058
				c-0.852-4.033-4.429-7.058-8.714-7.058c-4.922,0-8.91,3.988-8.91,8.91v14.034c-6.388,0.838-12.866,1.273-19.406,1.273
				c-6.54,0-13.018-0.436-19.406-1.273v-14.034c0-4.922-3.988-8.91-8.91-8.91c-4.285,0-7.862,3.026-8.714,7.058
				c-0.854-4.033-4.43-7.058-8.715-7.058c-4.286,0-7.863,3.027-8.715,7.059c-0.852-4.033-4.428-7.059-8.715-7.059
				c-3.813,0-7.058,2.4-8.33,5.768c-8.331-4.631-16.242-10.098-23.628-16.352c1.131-1.264,2.199-2.591,3.17-4.001
				c0.04-0.058,0.08-0.118,0.12-0.176c0.556-0.817,1.078-1.65,1.557-2.481c2.369-3.657,6.197-9.115,10.616-15.42
				c13.41-19.13,33.67-48.031,44.274-70.839c1.495-3.079,2.793-6.167,3.861-9.184c1.506-4.08,2.524-7.674,3.114-10.988
				c0.014-0.076,0.026-0.151,0.037-0.227c1.219-5.709,1.858-11.481,1.944-17.262c8.744,1.48,17.569,2.235,26.403,2.235
				c8.847,0,17.7-0.75,26.482-2.238c0.086,5.782,0.724,11.556,1.944,17.264c0.011,0.076,0.024,0.152,0.037,0.227
				c0.589,3.313,1.609,6.908,3.114,10.988c1.068,3.018,2.367,6.106,3.861,9.184c10.604,22.808,30.864,51.707,44.274,70.839
				c4.419,6.305,8.246,11.762,10.616,15.42c0.495,0.86,1.038,1.721,1.616,2.566c0.034,0.052,0.071,0.103,0.107,0.156
				c0.959,1.386,2.01,2.693,3.126,3.937C350.62,454.653,342.709,460.119,334.377,464.751z M444.029,344.02l-36.016,86.253
				c-2.271,5.435-6.523,9.662-11.971,11.901c-5.448,2.237-11.443,2.22-16.879-0.052c-3.867-1.612-7.172-4.279-9.568-7.711
				l-0.083-0.125c-0.361-0.524-0.694-1.055-0.988-1.574c-0.083-0.147-0.17-0.291-0.263-0.432c-2.545-3.945-6.52-9.618-11.124-16.185
				c-13.063-18.635-32.805-46.799-42.736-68.186c-0.023-0.049-0.045-0.096-0.069-0.144c-1.226-2.522-2.283-5.032-3.142-7.462
				c-0.014-0.04-0.029-0.081-0.044-0.121c-1.05-2.839-1.794-5.36-2.214-7.502c-0.033-0.283-0.082-0.565-0.144-0.846
				c-1.318-5.978-1.858-12.045-1.619-18.1c4.847-1.405,9.655-3.045,14.409-4.922c31.168-12.293,57.117-33.529,75.078-61.018
				c3.091,0.828,6.141,1.841,9.107,3.082C441.991,266.004,459.156,307.789,444.029,344.02z"/>
		</g>
	</g>
</g>
<g>
</g>
<g>
</g>
<g>
</g>
<g>
</g>
<g>
</g>
<g>
</g>
<g>
</g>
<g>
</g>
<g>
</g>
<g>
</g>
<g>
</g>
<g>
</g>
<g>
</g>
<g>
</g>
<g>
</g>
</svg>
