<?xml version="1.0" encoding="iso-8859-1"?>
<!-- Generator: Adobe Illustrator 18.0.0, SVG Export Plug-In . SVG Version: 6.00 Build 0)  -->
<!DOCTYPE svg PUBLIC "-//W3C//DTD SVG 1.1//EN" "http://www.w3.org/Graphics/SVG/1.1/DTD/svg11.dtd">
<svg version="1.1" id="Capa_1" xmlns="http://www.w3.org/2000/svg" xmlns:xlink="http://www.w3.org/1999/xlink" x="0px" y="0px"
	 viewBox="0 0 297.027 297.027" style="enable-background:new 0 0 297.027 297.027;" xml:space="preserve">
<g>
	<path d="M95.753,55.031c-23.787,0-43.14,19.371-43.14,43.182c0,23.813,19.353,43.186,43.14,43.186
		c23.786,0,43.139-19.373,43.139-43.186C138.892,74.402,119.54,55.031,95.753,55.031z M95.753,115.662
		c-9.598,0-17.405-7.826-17.405-17.449c0-9.619,7.808-17.447,17.405-17.447c9.597,0,17.403,7.828,17.403,17.447
		C113.157,107.836,105.35,115.662,95.753,115.662z"/>
	<ellipse cx="95.754" cy="98.214" rx="8.026" ry="8.038"/>
	<path d="M201.246,55.031c-23.787,0-43.139,19.371-43.139,43.182c0,23.813,19.352,43.186,43.139,43.186s43.14-19.373,43.14-43.186
		C244.385,74.402,225.033,55.031,201.246,55.031z M201.246,115.662c-9.597,0-17.403-7.826-17.403-17.449
		c0-9.619,7.807-17.447,17.403-17.447c9.597,0,17.404,7.828,17.404,17.447C218.65,107.836,210.842,115.662,201.246,115.662z"/>
	<ellipse cx="201.246" cy="98.214" rx="8.027" ry="8.038"/>
	<path d="M293.853,22.578c-2.256-2.6-5.458-4.188-8.893-4.408c-0.47-0.031-11.682-0.742-27.642-0.742
		c-55.713,0-91.95,8-107.705,23.777c-0.375,0.375-0.746,0.756-1.113,1.139c-0.367-0.383-0.738-0.762-1.113-1.139
		C131.632,25.428,95.395,17.428,39.681,17.428c-15.966,0-27.173,0.711-27.642,0.742c-3.435,0.221-6.638,1.809-8.893,4.408
		c-2.255,2.601-3.374,5.996-3.107,9.428c0.668,8.596,6.397,79.221,29.256,112.578c0.123,50.086,30.872,92.998,74.872,110.395v11.754
		c0,7.105,5.894,12.867,12.999,12.867c7.107,0,13.001-5.762,13.001-12.867v-4.816c6,0.881,11.946,1.338,18,1.338
		c6.054,0,12-0.457,18-1.338v4.816c0,7.105,5.894,12.867,13.001,12.867c7.105,0,12.999-5.762,12.999-12.867v-11.754
		c43-17.396,75.081-60.308,75.205-110.395c22.859-33.357,28.95-103.982,29.618-112.578C297.256,28.574,296.108,25.18,293.853,22.578
		z M148.5,237.52c-43.061,0-79.38-29.441-89.963-69.279c10.276,4.807,21.563,7.346,33.243,7.346c11.405,0,22.43-2.434,32.51-7.02
		l15.104,15.127c2.413,2.418,5.69,3.775,9.106,3.775s6.692-1.357,9.105-3.775l15.105-15.127c10.08,4.586,21.105,7.02,32.509,7.02
		c11.68,0,22.967-2.539,33.242-7.346C227.88,208.078,191.559,237.52,148.5,237.52z M242.614,134.338
		c-9.988,10.004-23.27,15.514-37.395,15.514c-14.125,0-27.405-5.51-37.397-15.518c-3.185-3.188-5.954-6.768-8.229-10.639
		c-2.312-3.932-6.531-6.346-11.092-6.346H148.5c-4.561,0-8.78,2.414-11.092,6.344c-2.278,3.875-5.048,7.453-8.233,10.645
		c-9.989,10.004-23.269,15.514-37.395,15.514c-14.125,0-27.405-5.51-37.395-15.514C40.237,120.17,30.84,75.541,27.02,43.32
		c3.676-0.092,7.96-0.158,12.661-0.158c45.893,0,79.349,6.066,89.494,16.227c3.188,3.193,5.957,6.773,8.231,10.643
		c2.312,3.934,6.532,6.348,11.094,6.348c4.561,0,8.781-2.416,11.093-6.35c2.272-3.865,5.041-7.445,8.23-10.641
		c10.145-10.16,43.603-16.227,89.494-16.227c4.702,0,8.991,0.066,12.667,0.158C266.177,75.529,256.788,120.145,242.614,134.338z"/>
</g>
<g>
</g>
<g>
</g>
<g>
</g>
<g>
</g>
<g>
</g>
<g>
</g>
<g>
</g>
<g>
</g>
<g>
</g>
<g>
</g>
<g>
</g>
<g>
</g>
<g>
</g>
<g>
</g>
<g>
</g>
</svg>
