<?xml version="1.0" encoding="iso-8859-1"?>
<!-- Generator: Adobe Illustrator 18.1.1, SVG Export Plug-In . SVG Version: 6.00 Build 0)  -->
<svg version="1.1" id="Capa_1" xmlns="http://www.w3.org/2000/svg" xmlns:xlink="http://www.w3.org/1999/xlink" x="0px" y="0px"
	 viewBox="0 0 290 290" style="enable-background:new 0 0 290 290;" xml:space="preserve">
<g>
	<path id="circle11567" d="M255,0c-19.271,0-35,15.729-35,35c0,17.573,13.082,32.196,30,34.637V140h-70.363
		c-2.441-16.918-17.064-30-34.637-30s-32.196,13.082-34.637,30H35c-2.761,0-5,2.239-5,5v75.363C13.082,222.804,0,237.427,0,255
		c0,19.271,15.729,35,35,35s35-15.729,35-35c0-17.573-13.082-32.196-30-34.637V150h70.363c2.441,16.918,17.064,30,34.637,30
		s32.196-13.082,34.637-30H255c2.761,0,5-2.239,5-5V69.637c16.918-2.441,30-17.064,30-34.637C290,15.729,274.271,0,255,0z M255,10
		c13.866,0,25,11.134,25,25s-11.134,25-25,25s-25-11.134-25-25S241.134,10,255,10z M255,17.5c-9.635,0-17.5,7.865-17.5,17.5
		c-0.02,1.381,1.084,2.516,2.465,2.535c1.381,0.02,2.516-1.084,2.535-2.465c0-0.024,0-0.047,0-0.071c0-6.933,5.567-12.5,12.5-12.5
		c1.381,0.02,2.516-1.084,2.535-2.465s-1.084-2.516-2.465-2.535C255.047,17.5,255.024,17.5,255,17.5z M145,120
		c13.866,0,25,11.134,25,25s-11.134,25-25,25s-25-11.134-25-25S131.134,120,145,120z M145,127.5c-9.635,0-17.5,7.865-17.5,17.5
		c-0.02,1.381,1.084,2.516,2.465,2.535c1.381,0.02,2.516-1.084,2.535-2.465c0-0.024,0-0.047,0-0.071c0-6.933,5.567-12.5,12.5-12.5
		c1.381,0.02,2.516-1.084,2.535-2.465c0.02-1.381-1.084-2.516-2.465-2.535C145.047,127.5,145.024,127.5,145,127.5z M35,230
		c13.866,0,25,11.134,25,25s-11.134,25-25,25s-25-11.134-25-25S21.134,230,35,230z M35,237.5c-9.635,0-17.5,7.865-17.5,17.5
		c-0.02,1.381,1.084,2.516,2.465,2.535s2.516-1.084,2.535-2.465c0-0.024,0-0.047,0-0.071c0-6.933,5.567-12.5,12.5-12.5
		c1.381,0.02,2.516-1.084,2.535-2.465c0.02-1.381-1.084-2.516-2.465-2.535C35.047,237.5,35.024,237.5,35,237.5z"/>
</g>
<g>
</g>
<g>
</g>
<g>
</g>
<g>
</g>
<g>
</g>
<g>
</g>
<g>
</g>
<g>
</g>
<g>
</g>
<g>
</g>
<g>
</g>
<g>
</g>
<g>
</g>
<g>
</g>
<g>
</g>
</svg>
