<?xml version="1.0" encoding="iso-8859-1"?>
<!-- Generator: Adobe Illustrator 19.0.0, SVG Export Plug-In . SVG Version: 6.00 Build 0)  -->
<svg version="1.1" id="Layer_1" xmlns="http://www.w3.org/2000/svg" xmlns:xlink="http://www.w3.org/1999/xlink" x="0px" y="0px"
	 viewBox="0 0 511.999 511.999" style="enable-background:new 0 0 511.999 511.999;" xml:space="preserve">
<g>
	<g>
		<path d="M397.283,21.946L256,163.228L114.717,21.946c-29.261-29.261-76.703-29.261-105.964,0L256,269.192L503.246,21.946
			C473.985-7.315,426.543-7.315,397.283,21.946z"/>
	</g>
</g>
<g>
	<g>
		<path d="M143.61,231.023c-30.986,0-56.195,25.209-56.195,56.195c0,30.986,25.209,56.195,56.195,56.195
			c30.986,0,56.195-25.209,56.195-56.195C199.805,256.232,174.596,231.023,143.61,231.023z M143.61,312.194h-0.004
			c-13.769,0-24.972-11.204-24.972-24.976c0.005-13.774,11.209-24.976,24.976-24.976c13.772,0,24.976,11.204,24.976,24.976
			C168.585,300.991,157.381,312.194,143.61,312.194z"/>
	</g>
</g>
<g>
	<g>
		<path d="M368.39,231.023c-30.986,0-56.195,25.209-56.195,56.195c0,30.986,25.209,56.195,56.195,56.195
			s56.195-25.209,56.195-56.195C424.585,256.232,399.376,231.023,368.39,231.023z M368.39,312.194h-0.004
			c-13.769,0-24.972-11.204-24.972-24.976c0.005-13.774,11.209-24.976,24.976-24.976c13.772,0,24.976,11.204,24.976,24.976
			C393.366,300.991,382.162,312.194,368.39,312.194z"/>
	</g>
</g>
<g>
	<g>
		<path d="M275.944,302.23L256,322.174l-19.944-19.944c-1.662,10.236-4.985,19.923-9.686,28.772l29.63,29.63l29.63-29.63
			C280.929,322.153,277.605,312.466,275.944,302.23z"/>
	</g>
</g>
<g>
	<g>
		<path d="M256,62.439c-14.909,0-29.475,1.466-43.574,4.236L256,110.247l43.574-43.574C285.475,63.904,270.909,62.439,256,62.439z"
			/>
	</g>
</g>
<g>
	<g>
		<path d="M431.452,146.72l-48.057,48.057c44.534,7.205,78.653,45.906,78.653,92.441c0,51.645-42.015,93.659-93.659,93.659
			c-22.262,0-42.725-7.822-58.814-20.842L256,413.611l-53.576-53.575c-16.089,13.02-36.552,20.842-58.814,20.842
			c-51.643,0-93.659-42.015-93.659-93.659c0-46.536,34.119-85.237,78.653-92.441l-48.056-48.056
			c-30.859,38.484-49.329,87.33-49.329,140.495c0,124.143,100.638,224.78,224.781,224.78s224.781-100.638,224.781-224.78
			C480.781,234.053,462.31,185.207,431.452,146.72z"/>
	</g>
</g>
<g>
</g>
<g>
</g>
<g>
</g>
<g>
</g>
<g>
</g>
<g>
</g>
<g>
</g>
<g>
</g>
<g>
</g>
<g>
</g>
<g>
</g>
<g>
</g>
<g>
</g>
<g>
</g>
<g>
</g>
</svg>
